<?xml version="1.0" encoding="UTF-8"?>
<svg width="22px" height="21px" viewBox="0 0 22 21" version="1.1" xmlns="http://www.w3.org/2000/svg" xmlns:xlink="http://www.w3.org/1999/xlink">
    <!-- Generator: Sketch 53.2 (72643) - https://sketchapp.com -->
    <title>Fill 1</title>
    <desc>Created with Sketch.</desc>
    <g id="Symbols" stroke="none" stroke-width="1" fill="none" fill-rule="evenodd">
        <g id="Shop-Interaction-invert" transform="translate(-164.000000, -1.000000)" fill="#FFFFFF">
            <g id="Group" transform="translate(0.000000, -2.000000)">
                <path d="M184.834126,5.32411462 C185.162962,5.32411462 185.450694,5.46406131 185.697321,5.74395468 C185.943948,6.02384806 186.039859,6.33173077 185.985053,6.66860244 L184.834126,14.8434882 C184.797915,15.1243812 184.673623,15.3572925 184.464185,15.5442212 C184.253769,15.73115 184.002249,15.8241146 183.710602,15.8241146 L170.771482,15.8241146 L170.963304,16.9996668 L182.558696,16.9996668 C182.868938,16.9996668 183.139053,17.1166222 183.367086,17.3495335 C183.596097,17.5834444 183.710602,17.8583397 183.710602,18.175219 C183.710602,18.4930979 183.596097,18.7639947 183.367086,18.9879094 C183.139053,19.2118241 182.868938,19.3237814 182.558696,19.3237814 L170.003219,19.3237814 C169.638172,19.3237814 169.300527,19.1098629 168.989307,18.6800267 C168.989307,18.6420411 168.975606,18.5910605 168.948203,18.5260853 C168.9208,18.4611101 168.89829,18.4091299 168.879695,18.3721439 L166.741281,5.32411462 L165.151906,5.32411462 C164.840686,5.32411462 164.571549,5.21215727 164.343516,4.98824257 C164.114505,4.76432788 164,4.49343107 164,4.17655179 C164,3.85867289 164.114505,3.58377761 164.343516,3.34986672 C164.571549,3.11695545 164.840686,3 165.151906,3 L167.701365,3 C167.975396,3 168.222023,3.0939642 168.441247,3.28089299 C168.660471,3.46682216 168.788678,3.69973343 168.824889,3.98062643 L169.071516,5.32411462 L184.834126,5.32411462 Z M183.518781,7.67621858 L179.13234,7.67621858 L179.13234,10.0003332 L183.188966,10.0003332 L183.518781,7.67621858 Z M174.554078,10.0003332 L177.980435,10.0003332 L177.980435,7.67621858 L174.554078,7.67621858 L174.554078,10.0003332 Z M174.554078,13.5 L177.980435,13.5 L177.980435,11.1758854 L174.554078,11.1758854 L174.554078,13.5 Z M173.430554,7.67621858 L169.427756,7.67621858 L169.838801,10.0283225 L170.003219,10.0003332 L173.430554,10.0003332 L173.430554,7.67621858 Z M170.003219,11.1758854 L170.38784,13.5 L173.430554,13.5 L173.430554,11.1758854 L170.003219,11.1758854 Z M179.13234,13.5 L182.723115,13.5 L183.024548,11.1758854 L179.13234,11.1758854 L179.13234,13.5 Z M170.003219,22.2356721 C170.003219,21.0781131 170.569874,20.5003332 171.703185,20.5003332 C172.855091,20.5003332 173.430554,21.0781131 173.430554,22.2356721 C173.430554,23.4122239 172.855091,24 171.703185,24 C170.569874,24 170.003219,23.4122239 170.003219,22.2356721 L170.003219,22.2356721 Z M180.283267,22.2356721 C180.283267,21.0781131 180.849922,20.5003332 181.983233,20.5003332 C183.13416,20.5003332 183.710602,21.0781131 183.710602,22.2356721 C183.710602,23.4122239 183.13416,24 181.983233,24 C180.849922,24 180.283267,23.4122239 180.283267,22.2356721 L180.283267,22.2356721 Z" id="Fill-1"></path>
            </g>
        </g>
    </g>
</svg>