<?xml version="1.0" encoding="UTF-8"?>
<svg width="21px" height="21px" viewBox="0 0 21 21" version="1.1" xmlns="http://www.w3.org/2000/svg" xmlns:xlink="http://www.w3.org/1999/xlink">
    <!-- Generator: Sketch 53.2 (72643) - https://sketchapp.com -->
    <title>Fill 1</title>
    <desc>Created with Sketch.</desc>
    <g id="Symbols" stroke="none" stroke-width="1" fill="none" fill-rule="evenodd">
        <g id="Shop-Interaction-invert" transform="translate(-329.000000, 0.000000)" fill="#FFFFFF">
            <g id="Group" transform="translate(0.000000, -2.000000)">
                <path d="M337.7656,5.1874 C334.6906,5.1874 332.1876,7.6904 332.1876,10.7654 C332.1876,13.8414 334.6906,16.3434 337.7656,16.3434 C340.8406,16.3434 343.3436,13.8414 343.3436,10.7654 C343.3436,7.6904 340.8406,5.1874 337.7656,5.1874 M348.1246,22.7184 C347.7016,22.7184 347.2906,22.5444 347.0046,22.2464 L342.7336,17.9874 C341.2766,18.9964 339.5336,19.5314 337.7656,19.5314 C332.9216,19.5314 328.9996,15.6094 328.9996,10.7654 C328.9996,5.9224 332.9216,1.9994 337.7656,1.9994 C342.6096,1.9994 346.5316,5.9224 346.5316,10.7654 C346.5316,12.5344 345.9956,14.2774 344.9876,15.7334 L349.2576,20.0044 C349.5446,20.2914 349.7186,20.7024 349.7186,21.1254 C349.7186,21.9974 348.9966,22.7184 348.1246,22.7184" id="Fill-1"></path>
            </g>
        </g>
    </g>
</svg>