<?xml version="1.0" encoding="UTF-8"?>
<svg width="23px" height="21px" viewBox="0 0 23 21" version="1.1" xmlns="http://www.w3.org/2000/svg" xmlns:xlink="http://www.w3.org/1999/xlink">
    <!-- Generator: Sketch 53.2 (72643) - https://sketchapp.com -->
    <title>Fill 4</title>
    <desc>Created with Sketch.</desc>
    <g id="Symbols" stroke="none" stroke-width="1" fill="none" fill-rule="evenodd">
        <g id="Shop-Interaction-invert" transform="translate(0.000000, -1.000000)" fill="#FFFFFF">
            <g id="Group" transform="translate(0.000000, -2.000000)">
                <path d="M0,24 C0,23.8690437 0.00701036315,23.6951016 0.0220325699,23.4801733 C0.0370547766,23.2652449 0.117173213,22.9193602 0.263389358,22.4415195 C0.408604023,21.9636788 0.613907515,21.5938021 0.876295393,21.3318894 C1.13267439,21.0759747 1.64042498,20.7950683 2.39954716,20.4891703 C3.15967082,20.1832722 4.01793956,19.8603799 4.97535487,19.5214928 C5.9317687,19.1816061 6.63280502,18.8997001 7.07846382,18.6727757 C7.64129583,18.3888704 8.0779413,17.973009 8.38840024,17.4261913 C8.69885918,16.8793735 8.85408865,16.3105631 8.85408865,15.7197601 C8.85408865,15.3188937 8.61273186,14.8450516 8.13101977,14.2982339 C7.64129583,13.7364212 7.24470957,12.9726758 6.94126099,12.0069977 C6.6388139,11.0403199 6.48658887,9.9266911 6.48658887,8.66511163 C6.48658887,7.71742752 6.62178873,6.87370876 6.89218845,6.13295568 C7.16258817,5.39320227 7.53213446,4.80039987 7.99882435,4.35554815 C8.46651572,3.91069643 8.99830184,3.57380873 9.59318122,3.34388537 C10.1890621,3.11396201 10.8260037,3 11.5060089,3 C12.1850126,3 12.8189498,3.11396201 13.4068188,3.34388537 C13.9946878,3.57380873 14.524471,3.91069643 14.9951668,4.35554815 C15.4668641,4.80039987 15.8374118,5.39320227 16.1078115,6.13295568 C16.3782113,6.87370876 16.5134111,7.71742752 16.5134111,8.66511163 C16.5134111,9.9266911 16.3631891,11.0403199 16.0637464,12.0069977 C15.7643038,12.9726758 15.3697205,13.7364212 14.8799965,14.2982339 C14.3912741,14.853049 14.1459113,15.326891 14.1459113,15.7197601 C14.1459113,16.3035655 14.3031438,16.8703765 14.6176086,17.4211929 C14.931072,17.9720093 15.3697205,18.3888704 15.9325525,18.6727757 C16.3782113,18.8997001 17.0792476,19.1816061 18.0366629,19.5214928 C18.9930767,19.8603799 19.848341,20.1832722 20.6004528,20.4891703 C21.3525647,20.7950683 21.8563093,21.0759747 22.1126883,21.3318894 C22.3750762,21.5938021 22.5803797,21.9476841 22.7255944,22.3925358 C22.8718105,22.8363879 22.9529304,23.2162612 22.9669511,23.5301566 L23,24 L0,24 Z" id="Fill-4"></path>
            </g>
        </g>
    </g>
</svg>